<?xml version="1.0" encoding="UTF-8"?>
<svg width="2013px" height="763px" viewBox="0 0 2013 763" version="1.1" xmlns="http://www.w3.org/2000/svg" xmlns:xlink="http://www.w3.org/1999/xlink">
    <!-- Generator: Sketch 46.2 (44496) - http://www.bohemiancoding.com/sketch -->
    <title>Group 32</title>
    <desc>Created with Sketch.</desc>
    <defs>
        <polygon id="path-1" points="0.149539054 0.781523387 144.022501 0.781523387 144.022501 115.90603 0.149539054 115.90603 0.149539054 0.781523387"></polygon>
    </defs>
    <g id="Page-1" stroke="none" stroke-width="1" fill="none" fill-rule="evenodd">
        <g id="Desktop_final-Copy" transform="translate(0.000000, -169.000000)">
            <g id="Group-32" transform="translate(-4.000000, 169.000000)">
                <path d="" id="Path-3" stroke="#979797"></path>
                <path d="M1469.75977,653 L1479.16218,682.822595 L1479.16218,682.822595 C1482.15135,692.303671 1476.88863,702.412807 1467.40755,705.401982 C1467.37059,705.413634 1467.33359,705.425167 1467.29656,705.436581 L1446,712 L1469.75977,653 Z" id="Path-34" fill="#F1FFD7"></path>
                <g id="Group-15" transform="translate(0.000000, 211.000000)">
                    <g id="Group-8" transform="translate(1174.000000, 365.000000)">
                        <g id="Group-4">
                            <g id="Group-3">
                                <g id="Group-2">
                                    <g id="Group">
                                        <g id="Page-1">
                                            <g id="Group-7" transform="translate(0.483655, 0.447739)"></g>
                                        </g>
                                    </g>
                                </g>
                            </g>
                        </g>
                    </g>
                    <rect id="Rectangle-10" fill-opacity="0.342985734" fill="#183076" x="3" y="383" width="1318" height="15"></rect>
                    <g id="Page-1" transform="translate(3.000000, 289.000000)" fill="#1D5EB5">
                        <polygon id="Fill-1" points="0 57 2014 57 2014 0 0 0"></polygon>
                    </g>
                    <rect id="Rectangle-17" fill="#193076" x="3" y="346" width="2014" height="37"></rect>
                    <g id="Group-38" opacity="0.808197464" transform="translate(1709.421766, 261.702727) scale(-1, 1) translate(-1709.421766, -261.702727) translate(1401.421766, 233.702727)" fill="#13307E">
                        <path d="M-9.42671131e-05,55.7046053 L615.688518,55.7046053 C615.688518,55.7046053 610.033434,57.118612 587.410269,44.3925517 C564.787105,31.6674341 523.782796,17.5283098 499.746568,24.5983433 C475.709396,31.6674341 450.258219,35.9094542 430.463067,24.5983433 C410.667916,13.2862897 351.283406,-2.26684127 334.316268,0.561172124 C317.348188,3.38918552 -9.42671131e-05,1.97517882 -9.42671131e-05,1.97517882 L-9.42671131e-05,55.7046053 Z" id="Fill-36"></path>
                    </g>
                    <g id="Group-38" transform="translate(0.000000, 233.000000)" fill="#13307E">
                        <path d="M0,55.7046053 L582.688518,55.7046053 C582.688518,55.7046053 577.745217,57.118612 557.969543,44.3925517 C538.193869,31.6674341 502.350614,17.5283098 481.339732,24.5983433 C460.328027,31.6674341 438.08029,35.9094542 420.776678,24.5983433 C403.473066,13.2862897 351.563054,-2.26684127 336.731504,0.561172124 C321.899131,3.38918552 0,1.97517882 0,1.97517882 L0,55.7046053 Z" id="Fill-36"></path>
                    </g>
                    <polygon id="Path-9" fill="#1D5EB5" points="1131.52174 460.341317 882.18012 542.625278 2021 542.625278 2021 294.796954 1705.42884 294.796954 1261.5415 421.464072"></polygon>
                    <g id="Group-9" transform="translate(1059.000000, 0.000000)">
                        <path d="M40,468.289331 C153.527177,495.587703 236.947699,504.687161 290.261567,495.587703 C370.232368,481.938517 427.623179,458.654611 405.043188,438.582278 C389.989861,425.200723 351.72932,408.339964 290.261567,388 L40,468.289331 Z" id="Path-12" stroke="#183076" fill="#183076" opacity="0.755434783"></path>
                        <g id="Group-6">
                            <g id="Page-1">
                                <path d="M55.8577068,405.515039 C55.8577068,405.515039 16.8409194,423.041557 9.67457073,427.821517 C2.50822204,432.601476 -0.676821821,437.381436 0.119439145,448.534675 C0.915700111,459.687914 0.915700111,485.977691 0.915700111,485.977691 L26.396051,479.604412 C26.396051,479.604412 42.3212703,456.501274 50.28388,455.704614 C58.2464896,454.907954 55.8577068,405.515039 55.8577068,405.515039" id="Fill-1" fill="#F1FFD7"></path>
                                <g id="Group-5" transform="translate(50.164441, 374.445302)" fill="#EA1F63">
                                    <path d="M107.61467,2.38997978 C107.61467,2.38997978 94.1869517,-1.59331985 83.8355592,2.38997978 C73.4841666,6.3732794 32.7661387,16.7298584 27.9885729,19.1198382 C23.2110072,21.509818 5.69326591,31.0697371 5.69326591,31.0697371 C5.69326591,31.0697371 -3.06560472,52.5795551 1.71196108,70.1060734 C6.48952687,87.6325918 12.8596146,89.2259117 12.8596146,89.2259117 C12.8596146,89.2259117 61.4315335,88.4292517 90.0969283,89.2259117 C118.762323,90.0225716 154.594067,90.8192315 164.149198,92.4125514 C173.70433,94.0058712 195.999637,90.0225716 207.943551,80.4626525 C219.887466,70.9027334 228.646336,74.0893731 235.812685,58.9528345 C242.979034,43.8162959 254.126687,24.6964577 244.571556,11.153239" id="Fill-3"></path>
                                </g>
                                <path d="M81.3380577,266.896212 C81.3380577,266.896212 80.5417967,295.575969 77.3567528,304.339228 C74.171709,313.102487 67.8016212,333.018985 70.1904041,348.952184 C72.579187,364.885382 69.3941432,436.584776 65.4128383,440.568075 C61.4315335,444.551375 41.5250094,445.348035 39.1362265,448.534675 C36.7474436,451.721314 25.5997901,470.044493 26.396051,473.231132 C27.192312,476.417772 26.396051,479.604412 26.396051,479.604412 L36.7474436,475.621112 C36.7474436,475.621112 39.9324874,469.247833 43.1175313,469.247833 C46.3025752,469.247833 73.375448,474.027792 80.5417967,466.061193 C87.7081454,458.094594 89.3006673,456.501274 92.4857112,444.551375 C95.670755,432.601476 111.595974,370.462002 112.392235,358.512103 C113.188496,346.562204 111.595974,340.188925 114.781018,326.645706 C117.966062,313.102487 125.928672,278.84611 125.928672,278.84611" id="Fill-6" fill="#F1FFD7"></path>
                                <path d="M179.278156,82.0711089 C178.481895,93.2243478 180.870678,101.190947 180.074417,114.734166 C179.278156,128.277385 179.278156,142.617263 179.278156,142.617263 L168.926764,148.990543 L128.317455,152.973842 C124.33615,145.007243 111.595974,144.210583 106.022148,139.430624 C100.448321,134.650664 96.467016,98.0043074 96.467016,98.0043074" id="Fill-8" fill="#F1FFD7"></path>
                                <path d="M93,100.5 C98.3989627,118.625089 114.017391,128.844554 139.855284,131.158395 C165.693177,133.472237 169.935219,130.001475 152.58141,120.74611 L93,100.5 Z" id="Path-43" fill="#183076" opacity="0.512284873"></path>
                                <path d="M106.818409,149.787203 C94.0782331,156.957142 86.1156235,156.160482 85.3193625,173.687 C84.5231015,191.213519 74.9679699,262.912912 74.9679699,262.912912 C74.9679699,262.912912 76.5604919,262.912912 86.9118844,268.489531 C97.263277,274.066151 125.928672,278.84611 125.928672,278.84611 L121.151106,296.372629 C121.151106,296.372629 141.853891,337.002285 148.223979,354.528803 C154.594067,372.055322 164.945459,399.141759 182.4632,408.701678 C199.980942,418.261597 259.700514,437.381436 281.995821,419.854917 C304.291128,402.328399 298.717301,368.868682 293.143475,352.935484 C287.569648,337.002285 269.255646,249.369693 262.089297,231.843175 C254.922948,214.316656 238.997729,192.806839 234.220163,176.87364 C229.442597,160.940441 224,128.5 201.573463,127.480725 C179.146927,126.461449 184.851983,135.447324 176.889374,136.243984 C168.926764,137.040644 133.09502,140.227283 133.09502,140.227283 C133.09502,140.227283 119.558584,142.617263 106.818409,149.787203 Z" id="Fill-10" fill="#183076"></path>
                                <path d="M89.0355124,97.6059774 C89.0355124,97.6059774 85.8504685,117.256391 99.1209538,118.849711 L100.183166,100.792617 L89.0355124,97.6059774 Z" id="Fill-12" fill="#183076"></path>
                                <path d="M124.601305,105.439534 C124.601305,105.439534 138.284646,139.5 142,139.5 C145.71615,139.5 179.809263,137.305931 179.809263,134.650664 C179.809263,131.995396 181.932094,105.439534 181.932094,105.439534 C181.932094,105.439534 133.09502,99.0662551 128.848561,99.0662551 L119.823739,99.0662551 L124.601305,105.439534 Z" id="Fill-14" fill="#183076"></path>
                                <g id="Group-18" transform="translate(67.682182, 0.015137)">
                                    <mask id="mask-2" fill="white">
                                        <use xlink:href="#path-1"></use>
                                    </mask>
                                    <g id="Clip-17"></g>
                                    <path d="M71.2222787,1.30468996 C67.8126893,1.88704837 64.7646023,3.76477581 62.6967126,6.53874567 C57.9621449,12.8937019 46.0246005,28.2365754 39.6561053,30.3604708 C31.5931667,33.049198 7.40514736,35.7387219 1.13379599,52.7689211 C-5.13755538,69.7991204 18.1554667,120.889718 82.658975,115.511467 C128.733819,111.670769 143.334857,98.9377538 143.999735,80.86871 C144.476695,67.8951032 137.423415,55.7994155 126.210468,49.2660075 L112.223348,41.1161764 C112.223348,41.1161764 114.014936,33.9454404 108.639378,25.878462 C103.264616,17.8114836 88.9303263,0.781284389 78.1792108,0.781284389 C75.3285965,0.781284389 73.0433275,0.992399269 71.2222787,1.30468996" id="Fill-16" fill="#F3F6ED" mask="url(#mask-2)"></path>
                                </g>
                                <path d="M101.769477,39.8333149 C101.769477,39.8333149 98.9483244,52.2516499 103.462328,58.461614 C107.976331,64.6707814 114.182389,85.5576114 146.907122,82.7350452 C179.630263,79.9124791 183.579717,69.7510818 181.887663,56.767915 L183.579717,69.7510818 C183.579717,69.7510818 192.607724,92.3308141 146.907122,95.7174154 C146.907122,95.7174154 111.361237,92.3308141 98.9483244,71.4447808 C98.9483244,71.4447808 90.4856629,59.0256492 95.5634191,46.6073143 L101.769477,39.8333149 Z" id="Fill-19" fill="#183076"></path>
                            </g>
                        </g>
                    </g>
                    <rect id="Rectangle-6" fill="#183076" x="915" y="270" width="11" height="111" rx="5.5"></rect>
                    <rect id="Rectangle-6" fill="#183076" x="983" y="270" width="11" height="111" rx="5.5"></rect>
                    <path d="M912.552029,383 C914.142527,393.075758 915.998108,399.704545 918.118773,402.886364 C921.299769,407.659091 909.344524,408.454545 912.552029,417.204545 C915.759534,425.954545 930.721148,429.136364 924.480765,436.295455 C920.32051,441.068182 918.199846,446.636364 918.118773,453 C934.023755,442.393939 940.385747,433.909091 937.204751,427.545455 C932.433256,418 916.771495,411.636364 925,402.886364 C930.48567,397.05303 930.48567,390.424242 925,383 L912.552029,383 Z" id="Path-13" fill="#1D5EB5" opacity="0.649286685"></path>
                    <path d="M981.552029,383 C983.142527,393.075758 984.998108,399.704545 987.118773,402.886364 C990.299769,407.659091 978.344524,408.454545 981.552029,417.204545 C984.759534,425.954545 999.721148,429.136364 993.480765,436.295455 C989.32051,441.068182 987.199846,446.636364 987.118773,453 C1003.02375,442.393939 1009.38575,433.909091 1006.20475,427.545455 C1001.43326,418 985.771495,411.636364 994,402.886364 C999.48567,397.05303 999.48567,390.424242 994,383 L981.552029,383 Z" id="Path-13" fill="#1D5EB5" opacity="0.649286685"></path>
                </g>
                <circle id="Oval" fill="#FAFFDF" opacity="0.711277174" cx="1481" cy="114" r="36"></circle>
                <path d="M806,634 L848,634.543449 C848,634.543449 831.805634,647.175341 806,634" id="Fill-39" fill="#92DBFF"></path>
                <path d="M848,646 L890,646.543449 C890,646.543449 873.805634,659.175341 848,646" id="Fill-39" fill="#92DBFF"></path>
                <path d="M846,662 L888,662.543449 C888,662.543449 871.805634,675.175341 846,662" id="Fill-39" fill="#92DBFF"></path>
                <path d="M739,665 L781,665.543449 C781,665.543449 764.805634,678.175341 739,665" id="Fill-39" fill="#92DBFF"></path>
                <path d="M599,665 L641,665.543449 C641,665.543449 624.805634,678.175341 599,665" id="Fill-39" fill="#92DBFF"></path>
                <path d="M649,685 L691,685.543449 C691,685.543449 674.805634,698.175341 649,685" id="Fill-39" fill="#92DBFF"></path>
                <path d="M509,695 L551,695.543449 C551,695.543449 534.805634,708.175341 509,695" id="Fill-39" fill="#92DBFF"></path>
                <path d="M799,650 L835,650.198801 C835,650.198801 821.036398,661.132838 799,650" id="Fill-45" fill="#92DBFF"></path>
                <path d="M767,643 L791,643.120979 C791,643.120979 781.679493,651.928878 767,643" id="Fill-51" fill="#92DBFF"></path>
                <circle id="Oval-3" fill="#FFFFFF" cx="1254.5" cy="34.5" r="4.5"></circle>
                <circle id="Oval-3" fill="#FFFFFF" opacity="0.592787591" cx="1342.5" cy="168.5" r="4.5"></circle>
                <circle id="Oval-3" fill="#FFFFFF" cx="1232.5" cy="112.5" r="2.5"></circle>
                <circle id="Oval-3" fill="#FFFFFF" cx="1383.5" cy="2.5" r="2.5"></circle>
                <circle id="Oval-3" fill="#FFFFFF" cx="1423.5" cy="182.5" r="2.5"></circle>
                <circle id="Oval-3" fill="#FFFFFF" opacity="0.684839221" cx="1553.5" cy="42.5" r="2.5"></circle>
                <circle id="Oval-8" fill="#AAE2FF" cx="1509.5" cy="269.5" r="1.5"></circle>
                <circle id="Oval-9" fill="#FFFFFF" cx="1338.5" cy="255.5" r="3.5"></circle>
                <path d="M1147,475 C1155.26714,498.661972 1166.6758,510.326324 1181.22598,509.993057 C1195.77615,509.65979 1199.57904,497.995437 1192.63464,475 L1147,475 Z" id="Path-44" fill-opacity="0.462098053" fill="#183076"></path>
                <ellipse id="Oval-10" fill="#193076" cx="1036.5" cy="746" rx="40.5" ry="17"></ellipse>
                <g id="Group-15" transform="translate(969.000000, 637.000000)">
                    <path d="M48,24 C48,37.2543158 37.2555789,48 24,48 C10.7456842,48 0,37.2543158 0,24 C0,10.7456842 10.7456842,0 24,0 C37.2555789,0 48,10.7456842 48,24" id="Fill-26" fill="#FFE37A"></path>
                    <path d="M66.9336007,17.4561512 C74.5992697,18.3897257 84.4459353,20.2777776 83.9793183,28.1141459 L78.8402093,90.8256663 C78.1611488,99.1031035 71.580459,105.603406 63.4241466,106.05219 L46.6322595,106.975477 C37.8373521,107.457696 30.2450266,100.772222 29.4597444,91.8518268 L24.041171,30.3130611 C23.5922577,25.2234081 26.8573118,20.5593931 31.7384537,19.345489 C41.2288606,16.9858343 54.5726777,15.9490583 66.9336007,17.4561512 Z" id="Fill-28" fill="#3ACBFF"></path>
                    <path d="M80,27 C80,30.3144 67.9115349,33 53,33 C38.0884651,33 26,30.3144 26,27 C26,23.6856 38.0884651,21 53,21 C67.9115349,21 80,23.6856 80,27" id="Fill-30" fill="#091C47"></path>
                </g>
            </g>
        </g>
    </g>
</svg>